<svg width="24" height="24" viewBox="0 0 24 24" fill="none" xmlns="http://www.w3.org/2000/svg">
<path d="M13.8762 14.4571L10.5714 12.4762V6.7619H12V11.7619L14.9333 13.5048C14.5429 13.7714 14.181 14.0952 13.8762 14.4571ZM12.5524 19.0667C12.2095 19.1143 11.8762 19.1429 11.5238 19.1429C7.31429 19.1429 3.90476 15.7333 3.90476 11.5238C3.90476 7.31429 7.31429 3.90476 11.5238 3.90476C15.7333 3.90476 19.1429 7.31429 19.1429 11.5238C19.1429 11.8762 19.1143 12.2095 19.0667 12.5524C19.7238 12.6476 20.3333 12.8571 20.8952 13.1619C20.9905 12.6286 21.0476 12.0857 21.0476 11.5238C21.0476 6.28571 16.7619 2 11.5238 2C6.28571 2 2 6.28571 2 11.5238C2 16.7619 6.25714 21.0476 11.5238 21.0476C12.0857 21.0476 12.6286 20.9905 13.1619 20.8952C12.8571 20.3333 12.6476 19.7238 12.5524 19.0667ZM17.2381 14.381V17.2381H14.381V19.1429H17.2381V22H19.1429V19.1429H22V17.2381H19.1429V14.381H17.2381Z" fill="#757575"/>
</svg>
