<svg width="24" height="25" viewBox="0 0 24 25" fill="none" xmlns="http://www.w3.org/2000/svg">
<path d="M21.728 19.7942L17.8332 15.8994C17.6574 15.7236 17.4191 15.626 17.1691 15.626H16.5323C17.6105 14.247 18.2512 12.5125 18.2512 10.6256C18.2512 6.13698 14.6142 2.5 10.1256 2.5C5.63698 2.5 2 6.13698 2 10.6256C2 15.1142 5.63698 18.7512 10.1256 18.7512C12.0125 18.7512 13.747 18.1105 15.126 17.0323V17.6691C15.126 17.9191 15.2236 18.1574 15.3994 18.3332L19.2942 22.228C19.6614 22.5952 20.2552 22.5952 20.6185 22.228L21.7241 21.1225C22.0913 20.7552 22.0913 20.1614 21.728 19.7942ZM10.1256 15.626C7.36367 15.626 5.12523 13.3914 5.12523 10.6256C5.12523 7.86367 7.35977 5.62523 10.1256 5.62523C12.8875 5.62523 15.126 7.85977 15.126 10.6256C15.126 13.3875 12.8914 15.626 10.1256 15.626Z" fill="#757575"/>
</svg>
