<svg width="24" height="24" viewBox="0 0 24 24" fill="none" xmlns="http://www.w3.org/2000/svg">
<path d="M15.4472 19.2143L15.3159 19.163H15.1748H5.16152C4.77696 19.1484 4.41337 18.9832 4.14929 18.7029C3.88283 18.42 3.73945 18.043 3.75061 17.6546L3.75092 17.6438V17.633V4.27739V4.26692L3.75062 4.25644C3.73978 3.86833 3.88329 3.49175 4.14968 3.20929C4.41372 2.92932 4.77711 2.76446 5.1614 2.75H18.3396C18.724 2.76446 19.0874 2.9294 19.3515 3.20949C19.6179 3.49208 19.7613 3.86881 19.7503 4.25702L19.75 4.26764V4.27826V15.7809V15.781L19.7508 20.8993C19.5279 20.8118 19.2764 20.713 19.0043 20.6063C17.9701 20.2004 16.638 19.6785 15.4472 19.2143Z" stroke="#8A8A8A" stroke-width="1.5"/>
<path d="M16.9754 14.5173L16.9764 14.5163C16.9916 14.5413 17.0025 14.5778 16.9995 14.6206L16.9993 14.6247C16.997 14.6615 16.9842 14.6901 16.9702 14.7085C15.478 15.9685 13.6385 16.6123 11.7697 16.5387L11.75 16.5379L11.7304 16.5387C9.8616 16.6121 8.02215 15.9682 6.53011 14.7081C6.51598 14.6898 6.50301 14.6611 6.50074 14.6241L6.50075 14.6241L6.50047 14.62C6.49756 14.5784 6.50839 14.5414 6.52453 14.5153L6.52497 14.5158L6.54517 14.5323C8.03868 15.754 9.87331 16.3889 11.7488 16.3239C13.6263 16.3977 15.4643 15.7624 16.9554 14.5338L16.9754 14.5173Z" stroke="#8A8A8A"/>
</svg>
